<?xml version="1.0" encoding="UTF-8" standalone="no"?>
<!DOCTYPE svg PUBLIC "-//W3C//DTD SVG 1.1//EN" "http://www.w3.org/Graphics/SVG/1.1/DTD/svg11.dtd">
<svg width="100%" height="100%" viewBox="0 0 1950 1350" version="1.1" xmlns="http://www.w3.org/2000/svg" xmlns:xlink="http://www.w3.org/1999/xlink" xml:space="preserve" xmlns:serif="http://www.serif.com/" style="fill-rule:evenodd;clip-rule:evenodd;stroke-linejoin:round;stroke-miterlimit:2;">
    <g transform="matrix(1,0,0,1,-300.833,-274.666)">
        <g transform="matrix(1,0,0,1,0,-44)">
            <path d="M2250.83,318.666L2250.83,1668.67L300.833,1668.67L300.833,318.666L2250.83,318.666ZM2175.83,393.666L375.833,393.666L375.833,1593.67L2175.83,1593.67L2175.83,393.666Z"/>
            <path d="M2250.83,318.666L2250.83,1668.67L300.833,1668.67L300.833,318.666L2250.83,318.666ZM2249.37,320.124C2249.37,320.124 302.291,320.124 302.291,320.124L302.291,1667.21C302.291,1667.21 2249.37,1667.21 2249.37,1667.21L2249.37,320.124ZM2177.29,393.666L2177.29,1593.67C2177.29,1594.47 2176.64,1595.12 2175.83,1595.12L375.833,1595.12C375.027,1595.12 374.374,1594.47 374.374,1593.67L374.374,393.666C374.374,392.861 375.027,392.208 375.833,392.208L2175.83,392.208C2176.64,392.208 2177.29,392.861 2177.29,393.666ZM2175.83,393.666L375.833,393.666L375.833,1593.67L2175.83,1593.67L2175.83,393.666Z"/>
        </g>
        <g transform="matrix(1.00949,0,0,1.02012,389.094,357.579)">
            <rect x="-13.137" y="-7.757" width="1783.08" height="1176.33" style="fill:rgb(128,128,128);fill-opacity:0.58;"/>
            <path d="M1769.95,-7.757L1769.95,1168.57L-13.137,1168.57L-13.137,-7.757L1769.95,-7.757ZM1768.5,-6.328C1768.5,-6.328 -11.692,-6.328 -11.692,-6.328L-11.692,1167.14L1768.5,1167.14L1768.5,-6.328Z"/>
        </g>
        <g id="Displays" transform="matrix(1,0,0,1,375,363.101)">
            <g id="Blue-LED" serif:id="Blue LED" transform="matrix(1,0,0,1,32.8165,534.082)">
                <g id="blue-led" serif:id="blue led">
                    <g transform="matrix(4.16667,0,0,4.16667,-419.192,-601.619)">
                        <path d="M405.893,221.738C405.893,222.795 405.036,223.651 403.98,223.651C402.924,223.651 402.067,222.794 402.067,221.738C402.067,220.682 402.924,219.825 403.98,219.825C405.036,219.825 405.893,220.681 405.893,221.738ZM400.792,242.224C399.735,242.224 398.879,243.081 398.879,244.137C398.879,245.194 399.736,246.05 400.792,246.05C401.848,246.05 402.705,245.193 402.705,244.137C402.706,243.081 401.849,242.224 400.792,242.224Z" style="fill:rgb(80,160,255);fill-rule:nonzero;"/>
                    </g>
                    <g transform="matrix(4.16667,0,0,4.16667,-419.192,-450.437)">
                        <path d="M443.669,212.893L441.047,215.176L442.377,216.698L458.598,216.698L460.307,215.176L458.37,212.893L443.669,212.893Z" style="fill:rgb(80,160,255);fill-rule:nonzero;"/>
                    </g>
                    <g transform="matrix(4.16667,0,0,4.16667,-419.192,-524.877)">
                        <path d="M443.316,230.286L445.214,216.7L443.543,214.852L441.34,216.772L439.327,231.083L440.619,232.605L443.316,230.286Z" style="fill:rgb(80,160,255);fill-rule:nonzero;"/>
                    </g>
                    <g transform="matrix(4.16667,0,0,4.16667,-419.192,-602.345)">
                        <path d="M460.724,231.123L446.167,231.123L443.926,233.043L445.559,234.927L460.222,234.927L462.463,232.971L462.121,232.592L460.724,231.123Z" style="fill:rgb(80,160,255);fill-rule:nonzero;"/>
                    </g>
                    <g transform="matrix(4.16667,0,0,4.16667,-419.192,-754.23)">
                        <path d="M463.47,249.349L448.913,249.349L446.672,251.269L448.305,253.153L462.968,253.153L465.209,251.197L464.867,250.818L463.47,249.349Z" style="fill:rgb(80,160,255);fill-rule:nonzero;"/>
                    </g>
                    <g transform="matrix(4.16667,0,0,4.16667,-419.192,-677.209)">
                        <path d="M461.099,248.584L463.112,250.903L464.859,249.418L466.91,234.962L465.239,233.114L463.036,235.034L461.099,248.584Z" style="fill:rgb(80,160,255);fill-rule:nonzero;"/>
                    </g>
                    <g transform="matrix(4.16667,0,0,4.16667,-419.192,-601.633)">
                        <path d="M429.783,231.037L415.226,231.037L412.985,232.957L414.618,234.841L429.281,234.841L431.522,232.885L431.18,232.507L429.783,231.037Z" style="fill:rgb(80,160,255);fill-rule:nonzero;"/>
                    </g>
                    <g transform="matrix(4.16667,0,0,4.16667,-419.192,-679.404)">
                        <path d="M415.187,248.829L417.085,235.243L415.414,233.395L413.211,235.315L411.198,249.626L412.49,251.148L415.187,248.829Z" style="fill:rgb(80,160,255);fill-rule:nonzero;"/>
                    </g>
                    <g transform="matrix(4.16667,0,0,4.16667,-419.192,-676.497)">
                        <path d="M430.158,248.498L432.171,250.817L433.918,249.332L435.969,234.876L434.298,233.028L432.095,234.948L430.158,248.498Z" style="fill:rgb(80,160,255);fill-rule:nonzero;"/>
                    </g>
                    <g transform="matrix(4.16667,0,0,4.16667,-419.192,-450.437)">
                        <path d="M374.774,212.893L372.152,215.176L373.482,216.698L389.703,216.698L391.412,215.176L389.475,212.893L374.774,212.893Z" style="fill:rgb(80,160,255);fill-rule:nonzero;"/>
                    </g>
                    <g transform="matrix(4.16667,0,0,4.16667,-419.192,-602.345)">
                        <path d="M391.828,231.123L377.271,231.123L375.03,233.043L376.663,234.927L391.326,234.927L393.567,232.971L393.225,232.592L391.828,231.123Z" style="fill:rgb(80,160,255);fill-rule:nonzero;"/>
                    </g>
                    <g transform="matrix(4.16667,0,0,4.16667,-419.192,-754.23)">
                        <path d="M394.574,249.349L380.018,249.349L377.777,251.269L379.41,253.153L394.073,253.153L396.314,251.197L395.971,250.818L394.574,249.349Z" style="fill:rgb(80,160,255);fill-rule:nonzero;"/>
                    </g>
                    <g transform="matrix(4.16667,0,0,4.16667,-419.192,-677.209)">
                        <path d="M392.203,248.584L394.216,250.903L395.963,249.418L398.014,234.962L396.343,233.114L394.14,235.034L392.203,248.584Z" style="fill:rgb(80,160,255);fill-rule:nonzero;"/>
                    </g>
                    <g transform="matrix(4.16667,0,0,4.16667,-419.192,-676.497)">
                        <path d="M356.215,248.498L358.228,250.817L359.975,249.332L362.026,234.876L360.355,233.028L358.152,234.948L356.215,248.498Z" style="fill:rgb(80,160,255);fill-rule:nonzero;"/>
                    </g>
                    <g transform="matrix(4.16667,0,0,4.16667,-419.192,-524.795)">
                        <path d="M354.028,230.294L356.041,232.613L357.788,231.128L359.839,216.672L358.168,214.824L355.965,216.744L354.028,230.294Z" style="fill:rgb(80,160,255);fill-rule:nonzero;"/>
                    </g>
                    <g transform="matrix(4.16667,0,0,4.16667,-419.192,-524.795)">
                        <path d="M390.016,230.294L392.029,232.613L393.776,231.128L395.827,216.672L394.156,214.824L391.953,216.744L390.016,230.294Z" style="fill:rgb(80,160,255);fill-rule:nonzero;"/>
                    </g>
                    <g transform="matrix(4.16667,0,0,4.16667,-419.192,-524.727)">
                        <path d="M427.971,230.286L429.984,232.605L431.731,231.12L433.782,216.664L432.111,214.816L429.908,216.736L427.971,230.286Z" style="fill:rgb(80,160,255);fill-rule:nonzero;"/>
                    </g>
                </g>
            </g>
            <g id="White-LED" serif:id="White LED" transform="matrix(1,0,0,1,32.8165,0.122853)">
                <g id="blue-led1" serif:id="blue led">
                    <g transform="matrix(4.16667,0,0,4.16667,-419.192,-601.619)">
                        <path d="M405.893,221.738C405.893,222.795 405.036,223.651 403.98,223.651C402.924,223.651 402.067,222.794 402.067,221.738C402.067,220.682 402.924,219.825 403.98,219.825C405.036,219.825 405.893,220.681 405.893,221.738ZM400.792,242.224C399.735,242.224 398.879,243.081 398.879,244.137C398.879,245.194 399.736,246.05 400.792,246.05C401.848,246.05 402.705,245.193 402.705,244.137C402.706,243.081 401.849,242.224 400.792,242.224Z" style="fill:white;fill-rule:nonzero;"/>
                    </g>
                    <g transform="matrix(4.16667,0,0,4.16667,-419.192,-450.437)">
                        <path d="M443.669,212.893L441.047,215.176L442.377,216.698L458.598,216.698L460.307,215.176L458.37,212.893L443.669,212.893Z" style="fill:white;fill-rule:nonzero;"/>
                    </g>
                    <g transform="matrix(4.16667,0,0,4.16667,-419.192,-524.877)">
                        <path d="M443.316,230.286L445.214,216.7L443.543,214.852L441.34,216.772L439.327,231.083L440.619,232.605L443.316,230.286Z" style="fill:white;fill-rule:nonzero;"/>
                    </g>
                    <g transform="matrix(4.16667,0,0,4.16667,-419.192,-602.345)">
                        <path d="M460.724,231.123L446.167,231.123L443.926,233.043L445.559,234.927L460.222,234.927L462.463,232.971L462.121,232.592L460.724,231.123Z" style="fill:white;fill-rule:nonzero;"/>
                    </g>
                    <g transform="matrix(4.16667,0,0,4.16667,-419.192,-680.116)">
                        <path d="M446.128,248.915L448.026,235.329L446.355,233.481L444.152,235.401L442.139,249.712L443.431,251.234L446.128,248.915Z" style="fill:white;fill-rule:nonzero;"/>
                    </g>
                    <g transform="matrix(4.16667,0,0,4.16667,-419.192,-754.23)">
                        <path d="M463.47,249.349L448.913,249.349L446.672,251.269L448.305,253.153L462.968,253.153L465.209,251.197L464.867,250.818L463.47,249.349Z" style="fill:white;fill-rule:nonzero;"/>
                    </g>
                    <g transform="matrix(4.16667,0,0,4.16667,-419.192,-449.725)">
                        <path d="M412.728,212.808L410.107,215.091L411.436,216.613L427.658,216.613L429.366,215.091L427.429,212.808L412.728,212.808Z" style="fill:white;fill-rule:nonzero;"/>
                    </g>
                    <g transform="matrix(4.16667,0,0,4.16667,-419.192,-601.633)">
                        <path d="M429.783,231.037L415.226,231.037L412.985,232.957L414.618,234.841L429.281,234.841L431.522,232.885L431.18,232.507L429.783,231.037Z" style="fill:white;fill-rule:nonzero;"/>
                    </g>
                    <g transform="matrix(4.16667,0,0,4.16667,-419.192,-679.404)">
                        <path d="M415.187,248.829L417.085,235.243L415.414,233.395L413.211,235.315L411.198,249.626L412.49,251.148L415.187,248.829Z" style="fill:white;fill-rule:nonzero;"/>
                    </g>
                    <g transform="matrix(4.16667,0,0,4.16667,-419.192,-753.517)">
                        <path d="M432.529,249.263L417.972,249.263L415.731,251.183L417.365,253.067L432.027,253.067L434.268,251.111L433.926,250.733L432.529,249.263Z" style="fill:white;fill-rule:nonzero;"/>
                    </g>
                    <g transform="matrix(4.16667,0,0,4.16667,-419.192,-450.437)">
                        <path d="M374.774,212.893L372.152,215.176L373.482,216.698L389.703,216.698L391.412,215.176L389.475,212.893L374.774,212.893Z" style="fill:white;fill-rule:nonzero;"/>
                    </g>
                    <g transform="matrix(4.16667,0,0,4.16667,-419.192,-524.877)">
                        <path d="M374.42,230.286L376.318,216.7L374.647,214.852L372.444,216.772L370.431,231.083L371.723,232.605L374.42,230.286Z" style="fill:white;fill-rule:nonzero;"/>
                    </g>
                    <g transform="matrix(4.16667,0,0,4.16667,-419.192,-680.116)">
                        <path d="M377.232,248.915L379.131,235.329L377.46,233.481L375.256,235.401L373.244,249.712L374.535,251.234L377.232,248.915Z" style="fill:white;fill-rule:nonzero;"/>
                    </g>
                    <g transform="matrix(4.16667,0,0,4.16667,-419.192,-754.23)">
                        <path d="M394.574,249.349L380.018,249.349L377.777,251.269L379.41,253.153L394.073,253.153L396.314,251.197L395.971,250.818L394.574,249.349Z" style="fill:white;fill-rule:nonzero;"/>
                    </g>
                    <g transform="matrix(4.16667,0,0,4.16667,-419.192,-677.209)">
                        <path d="M392.203,248.584L394.216,250.903L395.963,249.418L398.014,234.962L396.343,233.114L394.14,235.034L392.203,248.584Z" style="fill:white;fill-rule:nonzero;"/>
                    </g>
                    <g transform="matrix(4.16667,0,0,4.16667,-419.192,-449.725)">
                        <path d="M338.786,212.808L336.164,215.091L337.494,216.613L353.715,216.613L355.424,215.091L353.487,212.808L338.786,212.808Z" style="fill:white;fill-rule:nonzero;"/>
                    </g>
                    <g transform="matrix(4.16667,0,0,4.16667,-419.192,-524.165)">
                        <path d="M338.432,230.2L340.33,216.614L338.659,214.766L336.456,216.686L334.443,230.997L335.735,232.519L338.432,230.2Z" style="fill:white;fill-rule:nonzero;"/>
                    </g>
                    <g transform="matrix(4.16667,0,0,4.16667,-419.192,-601.633)">
                        <path d="M355.84,231.037L341.283,231.037L339.042,232.957L340.675,234.841L355.338,234.841L357.579,232.885L357.237,232.507L355.84,231.037Z" style="fill:white;fill-rule:nonzero;"/>
                    </g>
                    <g transform="matrix(4.16667,0,0,4.16667,-419.192,-753.517)">
                        <path d="M358.586,249.263L344.03,249.263L341.789,251.183L343.422,253.067L358.085,253.067L360.326,251.111L359.983,250.733L358.586,249.263Z" style="fill:white;fill-rule:nonzero;"/>
                    </g>
                    <g transform="matrix(4.16667,0,0,4.16667,-419.192,-676.497)">
                        <path d="M356.215,248.498L358.228,250.817L359.975,249.332L362.026,234.876L360.355,233.028L358.152,234.948L356.215,248.498Z" style="fill:white;fill-rule:nonzero;"/>
                    </g>
                    <g transform="matrix(4.16667,0,0,4.16667,-419.192,-524.795)">
                        <path d="M390.016,230.294L392.029,232.613L393.776,231.128L395.827,216.672L394.156,214.824L391.953,216.744L390.016,230.294Z" style="fill:white;fill-rule:nonzero;"/>
                    </g>
                    <g transform="matrix(4.16667,0,0,4.16667,-419.192,-524.727)">
                        <path d="M427.971,230.286L429.984,232.605L431.731,231.12L433.782,216.664L432.111,214.816L429.908,216.736L427.971,230.286Z" style="fill:white;fill-rule:nonzero;"/>
                    </g>
                    <g transform="matrix(4.16667,0,0,4.16667,-419.192,-524.795)">
                        <path d="M458.993,230.294L461.006,232.613L462.753,231.128L464.805,216.672L463.133,214.824L460.93,216.744L458.993,230.294Z" style="fill:white;fill-rule:nonzero;"/>
                    </g>
                </g>
            </g>
            <g id="Yellow-LED" serif:id="Yellow LED" transform="matrix(1,0,0,1,-778.76,534.082)">
                <g id="blue-led2" serif:id="blue led">
                    <g transform="matrix(4.16667,0,0,4.16667,-419.192,-601.619)">
                        <path d="M405.893,221.738C405.893,222.795 405.036,223.651 403.98,223.651C402.924,223.651 402.067,222.794 402.067,221.738C402.067,220.682 402.924,219.825 403.98,219.825C405.036,219.825 405.893,220.681 405.893,221.738ZM400.792,242.224C399.735,242.224 398.879,243.081 398.879,244.137C398.879,245.194 399.736,246.05 400.792,246.05C401.848,246.05 402.705,245.193 402.705,244.137C402.706,243.081 401.849,242.224 400.792,242.224Z" style="fill:rgb(255,225,25);fill-rule:nonzero;"/>
                    </g>
                    <g transform="matrix(4.16667,0,0,4.16667,-419.192,-677.209)">
                        <path d="M461.099,248.584L463.112,250.903L464.859,249.418L466.91,234.962L465.239,233.114L463.036,235.034L461.099,248.584Z" style="fill:rgb(255,225,25);fill-rule:nonzero;"/>
                    </g>
                    <g transform="matrix(4.16667,0,0,4.16667,-419.192,-449.725)">
                        <path d="M412.728,212.808L410.107,215.091L411.436,216.613L427.658,216.613L429.366,215.091L427.429,212.808L412.728,212.808Z" style="fill:rgb(255,225,25);fill-rule:nonzero;"/>
                    </g>
                    <g transform="matrix(4.16667,0,0,4.16667,-419.192,-524.165)">
                        <path d="M412.375,230.2L414.273,216.614L412.602,214.766L410.399,216.686L408.386,230.997L409.678,232.519L412.375,230.2Z" style="fill:rgb(255,225,25);fill-rule:nonzero;"/>
                    </g>
                    <g transform="matrix(4.16667,0,0,4.16667,-419.192,-679.404)">
                        <path d="M415.187,248.829L417.085,235.243L415.414,233.395L413.211,235.315L411.198,249.626L412.49,251.148L415.187,248.829Z" style="fill:rgb(255,225,25);fill-rule:nonzero;"/>
                    </g>
                    <g transform="matrix(4.16667,0,0,4.16667,-419.192,-753.517)">
                        <path d="M432.529,249.263L417.972,249.263L415.731,251.183L417.365,253.067L432.027,253.067L434.268,251.111L433.926,250.733L432.529,249.263Z" style="fill:rgb(255,225,25);fill-rule:nonzero;"/>
                    </g>
                    <g transform="matrix(4.16667,0,0,4.16667,-419.192,-676.497)">
                        <path d="M430.158,248.498L432.171,250.817L433.918,249.332L435.969,234.876L434.298,233.028L432.095,234.948L430.158,248.498Z" style="fill:rgb(255,225,25);fill-rule:nonzero;"/>
                    </g>
                    <g transform="matrix(4.16667,0,0,4.16667,-419.192,-754.23)">
                        <path d="M394.574,249.349L380.018,249.349L377.777,251.269L379.41,253.153L394.073,253.153L396.314,251.197L395.971,250.818L394.574,249.349Z" style="fill:rgb(255,225,25);fill-rule:nonzero;"/>
                    </g>
                    <g transform="matrix(4.16667,0,0,4.16667,-419.192,-677.209)">
                        <path d="M392.203,248.584L394.216,250.903L395.963,249.418L398.014,234.962L396.343,233.114L394.14,235.034L392.203,248.584Z" style="fill:rgb(255,225,25);fill-rule:nonzero;"/>
                    </g>
                    <g transform="matrix(4.16667,0,0,4.16667,-419.192,-449.725)">
                        <path d="M338.786,212.808L336.164,215.091L337.494,216.613L353.715,216.613L355.424,215.091L353.487,212.808L338.786,212.808Z" style="fill:rgb(255,225,25);fill-rule:nonzero;"/>
                    </g>
                    <g transform="matrix(4.16667,0,0,4.16667,-419.192,-524.165)">
                        <path d="M338.432,230.2L340.33,216.614L338.659,214.766L336.456,216.686L334.443,230.997L335.735,232.519L338.432,230.2Z" style="fill:rgb(255,225,25);fill-rule:nonzero;"/>
                    </g>
                    <g transform="matrix(4.16667,0,0,4.16667,-419.192,-679.404)">
                        <path d="M341.245,248.829L343.143,235.243L341.471,233.395L339.268,235.315L337.256,249.626L338.548,251.148L341.245,248.829Z" style="fill:rgb(255,225,25);fill-rule:nonzero;"/>
                    </g>
                    <g transform="matrix(4.16667,0,0,4.16667,-419.192,-753.517)">
                        <path d="M358.586,249.263L344.03,249.263L341.789,251.183L343.422,253.067L358.085,253.067L360.326,251.111L359.983,250.733L358.586,249.263Z" style="fill:rgb(255,225,25);fill-rule:nonzero;"/>
                    </g>
                    <g transform="matrix(4.16667,0,0,4.16667,-419.192,-676.497)">
                        <path d="M356.215,248.498L358.228,250.817L359.975,249.332L362.026,234.876L360.355,233.028L358.152,234.948L356.215,248.498Z" style="fill:rgb(255,225,25);fill-rule:nonzero;"/>
                    </g>
                    <g transform="matrix(4.16667,0,0,4.16667,-419.192,-524.795)">
                        <path d="M354.028,230.294L356.041,232.613L357.788,231.128L359.839,216.672L358.168,214.824L355.965,216.744L354.028,230.294Z" style="fill:rgb(255,225,25);fill-rule:nonzero;"/>
                    </g>
                    <g transform="matrix(4.16667,0,0,4.16667,-419.192,-524.795)">
                        <path d="M390.016,230.294L392.029,232.613L393.776,231.128L395.827,216.672L394.156,214.824L391.953,216.744L390.016,230.294Z" style="fill:rgb(255,225,25);fill-rule:nonzero;"/>
                    </g>
                    <g transform="matrix(4.16667,0,0,4.16667,-419.192,-524.727)">
                        <path d="M427.971,230.286L429.984,232.605L431.731,231.12L433.782,216.664L432.111,214.816L429.908,216.736L427.971,230.286Z" style="fill:rgb(255,225,25);fill-rule:nonzero;"/>
                    </g>
                    <g transform="matrix(4.16667,0,0,4.16667,-419.192,-524.795)">
                        <path d="M458.993,230.294L461.006,232.613L462.753,231.128L464.805,216.672L463.133,214.824L460.93,216.744L458.993,230.294Z" style="fill:rgb(255,225,25);fill-rule:nonzero;"/>
                    </g>
                </g>
            </g>
            <g id="Red-LED" serif:id="Red LED" transform="matrix(1,0,0,1,-778.76,0.122853)">
                <g id="led">
                    <g transform="matrix(4.16667,0,0,4.16667,-419.192,-601.619)">
                        <path d="M405.893,221.738C405.893,222.795 405.036,223.651 403.98,223.651C402.924,223.651 402.067,222.794 402.067,221.738C402.067,220.682 402.924,219.825 403.98,219.825C405.036,219.825 405.893,220.681 405.893,221.738ZM400.792,242.224C399.735,242.224 398.879,243.081 398.879,244.137C398.879,245.194 399.736,246.05 400.792,246.05C401.848,246.05 402.705,245.193 402.705,244.137C402.706,243.081 401.849,242.224 400.792,242.224Z" style="fill:rgb(255,30,0);fill-rule:nonzero;"/>
                    </g>
                    <g transform="matrix(4.16667,0,0,4.16667,-419.192,-602.345)">
                        <path d="M460.724,231.123L446.167,231.123L443.926,233.043L445.559,234.927L460.222,234.927L462.463,232.971L462.121,232.592L460.724,231.123Z" style="fill:rgb(255,30,0);fill-rule:nonzero;"/>
                    </g>
                    <g transform="matrix(4.16667,0,0,4.16667,-419.192,-680.116)">
                        <path d="M446.128,248.915L448.026,235.329L446.355,233.481L444.152,235.401L442.139,249.712L443.431,251.234L446.128,248.915Z" style="fill:rgb(255,30,0);fill-rule:nonzero;"/>
                    </g>
                    <g transform="matrix(4.16667,0,0,4.16667,-419.192,-677.209)">
                        <path d="M461.099,248.584L463.112,250.903L464.859,249.418L466.91,234.962L465.239,233.114L463.036,235.034L461.099,248.584Z" style="fill:rgb(255,30,0);fill-rule:nonzero;"/>
                    </g>
                    <g transform="matrix(4.16667,0,0,4.16667,-419.192,-449.725)">
                        <path d="M412.728,212.808L410.107,215.091L411.436,216.613L427.658,216.613L429.366,215.091L427.429,212.808L412.728,212.808Z" style="fill:rgb(255,30,0);fill-rule:nonzero;"/>
                    </g>
                    <g transform="matrix(4.16667,0,0,4.16667,-419.192,-601.633)">
                        <path d="M429.783,231.037L415.226,231.037L412.985,232.957L414.618,234.841L429.281,234.841L431.522,232.885L431.18,232.507L429.783,231.037Z" style="fill:rgb(255,30,0);fill-rule:nonzero;"/>
                    </g>
                    <g transform="matrix(4.16667,0,0,4.16667,-419.192,-753.517)">
                        <path d="M432.529,249.263L417.972,249.263L415.731,251.183L417.365,253.067L432.027,253.067L434.268,251.111L433.926,250.733L432.529,249.263Z" style="fill:rgb(255,30,0);fill-rule:nonzero;"/>
                    </g>
                    <g transform="matrix(4.16667,0,0,4.16667,-419.192,-676.497)">
                        <path d="M430.158,248.498L432.171,250.817L433.918,249.332L435.969,234.876L434.298,233.028L432.095,234.948L430.158,248.498Z" style="fill:rgb(255,30,0);fill-rule:nonzero;"/>
                    </g>
                    <g transform="matrix(4.16667,0,0,4.16667,-419.192,-450.437)">
                        <path d="M374.774,212.893L372.152,215.176L373.482,216.698L389.703,216.698L391.412,215.176L389.475,212.893L374.774,212.893Z" style="fill:rgb(255,30,0);fill-rule:nonzero;"/>
                    </g>
                    <g transform="matrix(4.16667,0,0,4.16667,-419.192,-524.877)">
                        <path d="M374.42,230.286L376.318,216.7L374.647,214.852L372.444,216.772L370.431,231.083L371.723,232.605L374.42,230.286Z" style="fill:rgb(255,30,0);fill-rule:nonzero;"/>
                    </g>
                    <g transform="matrix(4.16667,0,0,4.16667,-419.192,-602.345)">
                        <path d="M391.828,231.123L377.271,231.123L375.03,233.043L376.663,234.927L391.326,234.927L393.567,232.971L393.225,232.592L391.828,231.123Z" style="fill:rgb(255,30,0);fill-rule:nonzero;"/>
                    </g>
                    <g transform="matrix(4.16667,0,0,4.16667,-419.192,-680.116)">
                        <path d="M377.232,248.915L379.131,235.329L377.46,233.481L375.256,235.401L373.244,249.712L374.535,251.234L377.232,248.915Z" style="fill:rgb(255,30,0);fill-rule:nonzero;"/>
                    </g>
                    <g transform="matrix(4.16667,0,0,4.16667,-419.192,-754.23)">
                        <path d="M394.574,249.349L380.018,249.349L377.777,251.269L379.41,253.153L394.073,253.153L396.314,251.197L395.971,250.818L394.574,249.349Z" style="fill:rgb(255,30,0);fill-rule:nonzero;"/>
                    </g>
                    <g transform="matrix(4.16667,0,0,4.16667,-419.192,-677.209)">
                        <path d="M392.203,248.584L394.216,250.903L395.963,249.418L398.014,234.962L396.343,233.114L394.14,235.034L392.203,248.584Z" style="fill:rgb(255,30,0);fill-rule:nonzero;"/>
                    </g>
                    <g transform="matrix(4.16667,0,0,4.16667,-419.192,-676.497)">
                        <path d="M356.215,248.498L358.228,250.817L359.975,249.332L362.026,234.876L360.355,233.028L358.152,234.948L356.215,248.498Z" style="fill:rgb(255,30,0);fill-rule:nonzero;"/>
                    </g>
                    <g transform="matrix(4.16667,0,0,4.16667,-419.192,-524.795)">
                        <path d="M354.028,230.294L356.041,232.613L357.788,231.128L359.839,216.672L358.168,214.824L355.965,216.744L354.028,230.294Z" style="fill:rgb(255,30,0);fill-rule:nonzero;"/>
                    </g>
                    <g transform="matrix(4.16667,0,0,4.16667,-419.192,-524.795)">
                        <path d="M390.016,230.294L392.029,232.613L393.776,231.128L395.827,216.672L394.156,214.824L391.953,216.744L390.016,230.294Z" style="fill:rgb(255,30,0);fill-rule:nonzero;"/>
                    </g>
                    <g transform="matrix(4.16667,0,0,4.16667,-419.192,-524.727)">
                        <path d="M427.971,230.286L429.984,232.605L431.731,231.12L433.782,216.664L432.111,214.816L429.908,216.736L427.971,230.286Z" style="fill:rgb(255,30,0);fill-rule:nonzero;"/>
                    </g>
                    <g transform="matrix(4.16667,0,0,4.16667,-419.192,-524.795)">
                        <path d="M458.993,230.294L461.006,232.613L462.753,231.128L464.805,216.672L463.133,214.824L460.93,216.744L458.993,230.294Z" style="fill:rgb(255,30,0);fill-rule:nonzero;"/>
                    </g>
                </g>
            </g>
        </g>
        <g transform="matrix(1,0,0,1,1192.13,460.246)">
            <g transform="matrix(29.1667,0,0,29.1667,647.941,86.8316)">
            </g>
            <text x="300.96px" y="86.832px" style="font-family:'ArialMT', 'Arial', sans-serif;font-size:29.167px;">NOAA<tspan x="382.008px 390.112px " y="86.832px 86.832px "> S</tspan>tation ID: 8726724</text>
        </g>
        <g transform="matrix(1,0,0,1,305.235,460.246)">
            <text x="279.669px" y="87.629px" style="font-family:'ArialMT', 'Arial', sans-serif;font-size:29.167px;">Latitude 27°58.7N</text>
            <text x="521.604px" y="87.629px" style="font-family:'LucidaGrande', 'Lucida Grande', sans-serif;font-weight:500;font-size:29.167px;">◆</text>
            <g transform="matrix(29.1667,0,0,29.1667,815.421,87.6291)">
            </g>
            <text x="550.785px" y="87.629px" style="font-family:'ArialMT', 'Arial', sans-serif;font-size:29.167px;">Longitude 82°49.9W</text>
        </g>
        <g transform="matrix(1,0,0,1,1113.01,345.727)">
            <text x="272.98px" y="102.09px" style="font-family:'ArialMT', 'Arial', sans-serif;font-size:41.667px;">T<tspan x="296.886px 306.143px " y="102.09px 102.09px ">id</tspan>es Predicted for Clearwater</text>
            <g transform="matrix(41.6667,0,0,41.6667,733.429,145.12)">
            </g>
            <text x="373.709px" y="145.12px" style="font-family:'ArialMT', 'Arial', sans-serif;font-size:41.667px;">Beach, FL<tspan x="562.083px 573.66px " y="145.12px 145.12px "> (</tspan>Pier 60)</text>
        </g>
        <g transform="matrix(1,0,0,1,211.568,345.727)">
            <text x="353.503px" y="102.09px" style="font-family:'ArialMT', 'Arial', sans-serif;font-size:41.667px;">T<tspan x="374.336px 397.509px " y="102.09px 102.09px ">od</tspan>ay&apos;s Sunrise and Sunset for</text>
            <g transform="matrix(41.6667,0,0,41.6667,992.449,145.12)">
            </g>
            <text x="289.975px" y="145.12px" style="font-family:'ArialMT', 'Arial', sans-serif;font-size:41.667px;">Clearwater Beach Beach, FL<tspan x="821.103px 832.68px " y="145.12px 145.12px "> (</tspan>Pier 60)</text>
        </g>
        <g transform="matrix(0.620105,0,0,0.734831,431.556,1338.67)">
            <g transform="matrix(1.18501,0,0,1,-76.992,0)">
                <g transform="matrix(102.064,0,0,102.064,869.855,133.12)">
                </g>
                <text x="416.148px" y="133.12px" style="font-family:'Arial-BoldMT', 'Arial', sans-serif;font-weight:700;font-size:102.064px;">SUNRISE</text>
            </g>
        </g>
        <g transform="matrix(0.620105,0,0,0.734831,442.034,802.946)">
            <g transform="matrix(1.18501,0,0,1,-76.992,0)">
                <g transform="matrix(102.064,0,0,102.064,830.136,133.12)">
                </g>
                <text x="416.148px" y="133.12px" style="font-family:'Arial-BoldMT', 'Arial', sans-serif;font-weight:700;font-size:102.064px;">SUNSET</text>
            </g>
        </g>
        <g transform="matrix(0.620105,0,0,0.734831,1104.69,802.983)">
            <g transform="matrix(1.18501,0,0,1,-76.992,0)">
                <g transform="matrix(102.064,0,0,102.064,1232.71,133.12)">
                </g>
                <text x="416.148px" y="133.12px" style="font-family:'Arial-BoldMT', 'Arial', sans-serif;font-weight:700;font-size:102.064px;">NEXT HIGH TIDE</text>
            </g>
        </g>
        <g transform="matrix(0.620105,0,0,0.734831,1117.25,1338.71)">
            <g transform="matrix(1.18501,0,0,1,-76.992,0)">
                <g transform="matrix(102.064,0,0,102.064,1215.62,133.12)">
                </g>
                <text x="416.148px" y="133.12px" style="font-family:'Arial-BoldMT', 'Arial', sans-serif;font-weight:700;font-size:102.064px;">NEXT LOW TIDE</text>
            </g>
        </g>
    </g>
</svg>
